<mxfile host="app.diagrams.net" modified="2021-04-05T07:19:05.189Z" agent="5.0 (Windows NT 6.1; Win64; x64) AppleWebKit/537.36 (KHTML, like Gecko) Chrome/89.0.4389.114 Safari/537.36" etag="WkF-scJQMo6c4z9SU0BV" version="14.5.7" type="github">
  <diagram id="SLTf5sC_mNkKJKFUU-aI" name="Page-1">
    <mxGraphModel dx="1019" dy="555" grid="1" gridSize="10" guides="1" tooltips="1" connect="1" arrows="1" fold="1" page="1" pageScale="1" pageWidth="827" pageHeight="1169" math="0" shadow="0">
      <root>
        <mxCell id="0" />
        <mxCell id="1" parent="0" />
        <mxCell id="l_9DO5613h6kKf_ZAi5Y-1" value="" style="shape=process;whiteSpace=wrap;html=1;backgroundOutline=1;" parent="1" vertex="1">
          <mxGeometry x="20" y="120" width="120" height="50" as="geometry" />
        </mxCell>
        <mxCell id="l_9DO5613h6kKf_ZAi5Y-2" value="" style="ellipse;whiteSpace=wrap;html=1;aspect=fixed;" parent="1" vertex="1">
          <mxGeometry x="340" y="70" width="150" height="150" as="geometry" />
        </mxCell>
        <mxCell id="l_9DO5613h6kKf_ZAi5Y-3" value="" style="shape=process;whiteSpace=wrap;html=1;backgroundOutline=1;" parent="1" vertex="1">
          <mxGeometry x="690" y="120" width="120" height="50" as="geometry" />
        </mxCell>
        <mxCell id="l_9DO5613h6kKf_ZAi5Y-4" value="" style="endArrow=classic;html=1;entryX=0;entryY=0.333;entryDx=0;entryDy=0;entryPerimeter=0;exitX=1;exitY=0;exitDx=0;exitDy=0;" parent="1" source="l_9DO5613h6kKf_ZAi5Y-1" target="l_9DO5613h6kKf_ZAi5Y-2" edge="1">
          <mxGeometry width="50" height="50" relative="1" as="geometry">
            <mxPoint x="200" y="160" as="sourcePoint" />
            <mxPoint x="250" y="110" as="targetPoint" />
          </mxGeometry>
        </mxCell>
        <mxCell id="l_9DO5613h6kKf_ZAi5Y-5" value="" style="endArrow=classic;html=1;entryX=1;entryY=1;entryDx=0;entryDy=0;exitX=0;exitY=0.667;exitDx=0;exitDy=0;exitPerimeter=0;" parent="1" source="l_9DO5613h6kKf_ZAi5Y-2" target="l_9DO5613h6kKf_ZAi5Y-1" edge="1">
          <mxGeometry width="50" height="50" relative="1" as="geometry">
            <mxPoint x="400" y="270" as="sourcePoint" />
            <mxPoint x="450" y="220" as="targetPoint" />
          </mxGeometry>
        </mxCell>
        <mxCell id="l_9DO5613h6kKf_ZAi5Y-6" value="" style="endArrow=classic;html=1;entryX=0;entryY=0;entryDx=0;entryDy=0;exitX=1.002;exitY=0.339;exitDx=0;exitDy=0;exitPerimeter=0;" parent="1" source="l_9DO5613h6kKf_ZAi5Y-2" target="l_9DO5613h6kKf_ZAi5Y-3" edge="1">
          <mxGeometry width="50" height="50" relative="1" as="geometry">
            <mxPoint x="400" y="270" as="sourcePoint" />
            <mxPoint x="450" y="220" as="targetPoint" />
          </mxGeometry>
        </mxCell>
        <mxCell id="l_9DO5613h6kKf_ZAi5Y-7" value="" style="endArrow=classic;html=1;exitX=0;exitY=1;exitDx=0;exitDy=0;" parent="1" source="l_9DO5613h6kKf_ZAi5Y-3" edge="1">
          <mxGeometry width="50" height="50" relative="1" as="geometry">
            <mxPoint x="400" y="270" as="sourcePoint" />
            <mxPoint x="490" y="170" as="targetPoint" />
          </mxGeometry>
        </mxCell>
        <mxCell id="l_9DO5613h6kKf_ZAi5Y-8" value="Aplikasi Penjualan Tiket Pertandingan Sepak Bola" style="text;html=1;strokeColor=none;fillColor=none;align=center;verticalAlign=middle;whiteSpace=wrap;rounded=0;fontStyle=1;fontSize=14;" parent="1" vertex="1">
          <mxGeometry x="355" y="115" width="120" height="60" as="geometry" />
        </mxCell>
        <mxCell id="l_9DO5613h6kKf_ZAi5Y-9" value="USER" style="text;html=1;strokeColor=none;fillColor=none;align=center;verticalAlign=middle;whiteSpace=wrap;rounded=0;fontSize=15;fontStyle=1" parent="1" vertex="1">
          <mxGeometry x="60" y="135" width="40" height="20" as="geometry" />
        </mxCell>
        <mxCell id="l_9DO5613h6kKf_ZAi5Y-10" value="ADMIN" style="text;html=1;strokeColor=none;fillColor=none;align=center;verticalAlign=middle;whiteSpace=wrap;rounded=0;fontSize=15;fontStyle=1" parent="1" vertex="1">
          <mxGeometry x="730" y="135" width="40" height="20" as="geometry" />
        </mxCell>
      </root>
    </mxGraphModel>
  </diagram>
</mxfile>
